<svg xmlns="http://www.w3.org/2000/svg" viewBox="0 0 24 24" width="34" height="34" fill="none" stroke="currentColor" stroke-width="2.35" stroke-linecap="round" stroke-linejoin="round">
  <circle cx="9" cy="12" r="1.5" fill="currentColor"/><circle cx="15" cy="12" r="1.5" fill="currentColor"/><path d="M12 2a7 7 0 0 0-7 7c0 3 1.5 5 2.5 6.5V19a2 2 0 0 0 2 2h5a2 2 0 0 0 2-2v-3.5c1-1.5 2.5-3.5 2.5-6.5a7 7 0 0 0-7-7z"/><line x1="10" y1="21" x2="10" y2="18"/><line x1="14" y1="21" x2="14" y2="18"/>
</svg>
